<?xml version="1.0" encoding="UTF-8" standalone="no"?>
<svg
   xmlns:dc="http://purl.org/dc/elements/1.1/"
   xmlns:cc="http://creativecommons.org/ns#"
   xmlns:rdf="http://www.w3.org/1999/02/22-rdf-syntax-ns#"
   xmlns:svg="http://www.w3.org/2000/svg"
   xmlns="http://www.w3.org/2000/svg"
   xmlns:sodipodi="http://sodipodi.sourceforge.net/DTD/sodipodi-0.dtd"
   xmlns:inkscape="http://www.inkscape.org/namespaces/inkscape"
   width="107.11619mm"
   height="100.67396mm"
   viewBox="0 0 107.11619 100.67396"
   version="1.1"
   id="svg8"
   inkscape:version="1.0.1 (3bc2e813f5, 2020-09-07)"
   sodipodi:docname="warning.svg">
  <defs
     id="defs2" />
  <sodipodi:namedview
     id="base"
     pagecolor="#ffffff"
     bordercolor="#666666"
     borderopacity="1.0"
     inkscape:pageopacity="0.0"
     inkscape:pageshadow="2"
     inkscape:zoom="0.49497475"
     inkscape:cx="138.79391"
     inkscape:cy="123.96434"
     inkscape:document-units="mm"
     inkscape:current-layer="layer1"
     inkscape:document-rotation="0"
     showgrid="false"
     inkscape:window-width="1920"
     inkscape:window-height="1017"
     inkscape:window-x="1912"
     inkscape:window-y="-8"
     inkscape:window-maximized="1"
     fit-margin-top="0"
     fit-margin-left="0"
     fit-margin-right="0"
     fit-margin-bottom="0" />
  <metadata
     id="metadata5">
    <rdf:RDF>
      <cc:Work
         rdf:about="">
        <dc:format>image/svg+xml</dc:format>
        <dc:type
           rdf:resource="http://purl.org/dc/dcmitype/StillImage" />
        <dc:title></dc:title>
      </cc:Work>
    </rdf:RDF>
  </metadata>
  <g
     inkscape:label="Layer 1"
     inkscape:groupmode="layer"
     id="layer1"
     transform="translate(-48.495482,-106.14515)">
    <path
       d="m 154.59983,194.33872 -45.09294,-83.74063 c -3.19617,-5.93725 -11.710461,-5.93725 -14.909271,0 l -45.090294,83.74063 a 8.4666667,8.4666667 0 0 0 7.44273,12.48039 h 90.193815 a 8.4666667,8.4666667 0 0 0 7.45596,-12.48039 z m -52.54625,-0.48419 a 5.2916667,5.2916667 0 1 1 5.29166,-5.29167 5.2916667,5.2916667 0 0 1 -5.29166,5.29167 z m 5.74675,-53.22094 -1.51871,32.27917 a 4.2333355,4.2333355 0 0 1 -8.466671,0 l -1.51871,-32.26594 v 0 a 5.7493958,5.7493958 0 0 1 5.688551,-6.00339 h 0.0556 a 5.7520417,5.7520417 0 0 1 5.74939,6.00604 z"
       id="path24"
       style="stroke-width:0.264583" />
    <path
       style="fill:#f9f9f9;stroke:#000000;stroke-width:1.79528"
       d="m 378.78397,667.2467 c -4.02162,-2.00406 -7.72325,-6.6819 -8.38243,-10.59309 -0.20567,-1.22032 -1.68842,-30.34375 -3.29499,-64.71875 -3.2233,-68.96691 -3.25269,-67.0826 1.14308,-73.26535 10.79421,-15.18229 33.04166,-10.98613 38.1411,7.19392 0.62722,2.2361 0.17353,16.52 -2.08727,65.71428 -1.59806,34.77321 -3.25666,64.27867 -3.71227,66.03877 -0.46126,1.78194 -1.94313,4.42349 -3.36846,6.0045 -5.03719,5.58742 -11.82407,6.92196 -18.43876,3.62572 z"
       id="path39"
       transform="scale(0.26458333)" />
    <path
       style="fill:#f9f9f9;stroke:#000000;stroke-width:1.79528"
       d="m 381.98818,731.86089 c -18.42618,-4.26533 -21.39222,-28.77069 -4.45319,-36.79224 7.46624,-3.53568 17.18575,-1.57726 22.56214,4.54611 6.96264,7.93001 6.57485,20.04584 -0.86753,27.10494 -4.41719,4.1897 -11.81816,6.39658 -17.24142,5.14119 z"
       id="path41"
       transform="scale(0.26458333)" />
  </g>
</svg>
